<svg clip-rule="evenodd" fill-rule="evenodd" stroke-linecap="round" stroke-linejoin="round" stroke-miterlimit="1.5" viewBox="0 0 851 704" xmlns="http://www.w3.org/2000/svg"><g fill="none" stroke="#000" stroke-width="33.89" transform="matrix(2.26526 0 0 2.26526 -206.3819 -854.241)"><path d="m891.963 862.004c0 47.139-38.271 85.41-85.411 85.41s-85.411-38.271-85.411-85.41c0-47.14 38.271-85.411 85.411-85.411 13.442 0 26.163 3.112 37.481 8.654m47.93 76.757h-85.411" transform="translate(-613.091 -382.545)"/><path d="m891.963 862.004c0 47.139-38.271 85.41-85.411 85.41s-85.411-38.271-85.411-85.41c0-47.14 38.271-85.411 85.411-85.411 13.442 0 26.163 3.112 37.481 8.654m47.93 76.757h-85.411" transform="translate(-442.269 -382.545)"/><path d="m170.06 631.4s33.961 39.273 108.812 39.273 108.813-39.273 108.813-39.273"/></g></svg>