<?xml version="1.0" standalone="no"?>
<!DOCTYPE svg PUBLIC "-//W3C//DTD SVG 20010904//EN"
 "http://www.w3.org/TR/2001/REC-SVG-20010904/DTD/svg10.dtd">
<svg version="1.0" xmlns="http://www.w3.org/2000/svg"
 width="976.000000pt" height="976.000000pt" viewBox="0 0 976.000000 976.000000"
 preserveAspectRatio="xMidYMid meet">
<metadata>
Created by potrace 1.11, written by Peter Selinger 2001-2013
</metadata>
<g transform="translate(0.000000,976.000000) scale(0.100000,-0.100000)"
fill="#000000" stroke="none">
<path d="M4555 9749 c-1042 -67 -2070 -489 -2865 -1178 -117 -101 -362 -344
-469 -466 -721 -817 -1143 -1838 -1211 -2930 -79 -1263 349 -2527 1179 -3485
101 -117 344 -362 466 -469 806 -711 1799 -1127 2875 -1206 1213 -89 2412 279
3370 1034 280 221 592 533 811 811 609 774 962 1686 1034 2670 89 1213 -278
2409 -1034 3370 -219 278 -531 590 -811 811 -949 748 -2132 1115 -3345 1038z
m-845 -2239 c177 -30 401 -104 500 -166 153 -95 181 -313 57 -442 -89 -93
-219 -112 -357 -52 -181 78 -304 104 -500 103 -244 0 -436 -57 -638 -190 -331
-218 -523 -578 -523 -978 0 -317 113 -594 335 -819 334 -340 829 -443 1273
-266 256 102 486 315 611 565 33 67 82 198 82 221 0 12 -84 14 -597 14 l-598
0 -50 24 c-70 32 -112 70 -142 129 -70 140 -21 304 115 385 l47 27 643 5 644
5 33 130 c49 194 104 326 203 490 416 688 1266 1005 2028 756 142 -46 257 -98
301 -135 17 -15 46 -54 62 -88 44 -86 44 -170 0 -256 -51 -104 -136 -156 -254
-155 -59 0 -86 6 -173 42 -129 53 -224 77 -359 92 -280 30 -573 -51 -803 -221
-507 -377 -629 -1068 -282 -1595 54 -81 183 -219 262 -280 358 -274 842 -317
1248 -111 254 129 471 376 567 644 43 121 119 106 -580 112 -602 5 -611 5
-650 27 -210 113 -211 411 -2 512 l62 31 801 1 c782 1 802 1 847 -19 58 -26
123 -91 150 -151 18 -39 21 -62 20 -152 -17 -847 -651 -1567 -1493 -1694 -210
-32 -481 -18 -693 36 -371 94 -719 324 -949 626 -39 51 -74 93 -78 93 -4 0
-39 -42 -78 -93 -230 -302 -578 -532 -949 -626 -276 -70 -613 -70 -873 0 -692
186 -1189 741 -1295 1447 -30 201 -16 471 36 677 137 550 548 1010 1079 1208
293 109 598 139 910 87z m-597 -4056 c30 -10 78 -43 134 -93 162 -141 262
-210 433 -296 639 -321 1539 -352 2232 -76 230 91 403 198 601 372 103 91 155
113 250 107 189 -12 312 -197 252 -379 -50 -149 -428 -436 -780 -591 -421
-186 -844 -271 -1355 -271 -511 0 -934 85 -1355 271 -352 155 -730 442 -780
591 -33 101 -8 218 63 294 73 78 199 107 305 71z"/>
</g>
</svg>
