<?xml version="1.0" encoding="UTF-8" standalone="no"?>
<!DOCTYPE svg PUBLIC "-//W3C//DTD SVG 1.1//EN" "http://www.w3.org/Graphics/SVG/1.1/DTD/svg11.dtd">
<svg width="100%" height="100%" viewBox="0 0 1024 768" version="1.1" xmlns="http://www.w3.org/2000/svg" xmlns:xlink="http://www.w3.org/1999/xlink" xml:space="preserve" xmlns:serif="http://www.serif.com/" style="fill-rule:evenodd;clip-rule:evenodd;stroke-linejoin:round;stroke-miterlimit:2;">
    <g transform="matrix(2.92968,0,0,9.03068,-356.442,-1650.11)">
        <rect x="121.666" y="182.723" width="349.527" height="85.043" style="fill:white;"/>
    </g>
    <g transform="matrix(5.78531,0,0,27.4286,0,0)">
        <rect x="0" y="0" width="177" height="28" style="fill:none;"/>
        <g transform="matrix(0.514259,0,0,0.108469,43.0897,12.5103)">
            <g>
                <path d="M16.413,2.414C19.216,-0.404 25.626,0.161 25.774,0.307C25.922,0.454 26.479,6.86 23.663,9.666C20.847,12.472 14.45,11.907 14.31,11.771C14.17,11.634 13.598,5.213 16.413,2.414Z" style="fill:rgb(255,92,57);fill-rule:nonzero;"/>
                <path d="M23.654,16.369C26.476,19.169 25.906,25.58 25.763,25.728C25.62,25.876 19.213,26.434 16.406,23.617C13.6,20.799 14.16,14.405 14.305,14.265C14.45,14.125 20.863,13.552 23.658,16.369L23.654,16.369Z" style="fill:rgb(255,92,57);fill-rule:nonzero;"/>
                <path d="M9.655,23.613C6.855,26.436 0.444,25.866 0.296,25.723C0.148,25.58 -0.404,19.171 2.414,16.364C5.231,13.558 11.627,14.112 11.767,14.26C11.907,14.408 12.477,20.818 9.655,23.613Z" style="fill:rgb(255,92,57);fill-rule:nonzero;"/>
                <path d="M2.414,9.655C-0.405,6.86 0.161,0.449 0.307,0.301C0.454,0.153 6.858,-0.404 9.664,2.414C12.47,5.231 11.907,11.626 11.77,11.766C11.634,11.906 5.212,12.477 2.414,9.655Z" style="fill:rgb(255,92,57);fill-rule:nonzero;"/>
            </g>
            <g>
                <path d="M76.152,8.367L74.676,8.367L74.676,21.782L79.006,21.782L79.006,11.668C79.006,10.029 78.34,8.422 76.152,8.367Z" style="fill:rgb(34,49,54);fill-rule:nonzero;"/>
                <path d="M76.841,1.625C75.466,1.625 74.34,2.702 74.34,4.023C74.34,5.344 75.466,6.436 76.841,6.436C78.215,6.436 79.341,5.357 79.341,4.023C79.341,2.689 78.221,1.625 76.841,1.625Z" style="fill:rgb(34,49,54);fill-rule:nonzero;"/>
                <path d="M84.175,3.939L82.707,3.939L82.707,21.782L87.036,21.782L87.036,7.241C87.028,5.603 86.365,3.994 84.175,3.939Z" style="fill:rgb(34,49,54);fill-rule:nonzero;"/>
                <path d="M41.431,6.275C42.044,6.275 42.792,6.423 43.717,6.758L44.707,3.768C43.215,3.138 41.685,2.814 40.477,2.814C37.397,2.784 35.239,4.666 35.239,8.689L35.239,8.864L35.202,8.864L32.798,9.455L32.798,12.147L35.239,12.147L35.239,21.782L39.571,21.782L39.571,12.147L42.919,12.147L42.919,8.861L39.572,8.861L39.572,8.506C39.569,6.946 40.276,6.275 41.431,6.275Z" style="fill:rgb(34,49,54);fill-rule:nonzero;"/>
                <path d="M53.934,10.137C52.67,9.011 51.235,8.501 49.882,8.501C46.599,8.501 44.3,11.524 44.3,15.322C44.3,19.119 46.599,22.144 49.882,22.144C51.232,22.144 52.667,21.641 53.93,20.5L53.93,21.787L58.26,21.787L58.26,8.863L53.934,8.863L53.934,10.137ZM53.934,17.301C53.042,18.173 51.904,18.606 51.027,18.608C49.518,18.608 48.657,17.32 48.657,15.315C48.657,13.31 49.576,12.026 51.027,12.023C51.904,12.023 53.042,12.459 53.934,13.33L53.934,17.301Z" style="fill:rgb(34,49,54);fill-rule:nonzero;"/>
                <path d="M67.685,18.698C65.855,18.698 64.735,17.303 64.735,15.319C64.735,13.335 65.831,11.939 67.659,11.939C68.93,11.966 70.175,12.307 71.283,12.932L72.306,10.097C70.837,9.041 69.069,8.482 67.26,8.501C63.16,8.475 60.423,11.499 60.392,15.322C60.392,19.095 63.094,22.144 67.311,22.144C69.147,22.151 70.935,21.564 72.409,20.471L71.378,17.687C70.247,18.32 68.98,18.666 67.685,18.698Z" style="fill:rgb(34,49,54);fill-rule:nonzero;"/>
                <path d="M170.856,8.501C169.26,8.501 167.704,9.196 166.406,10.541L166.406,8.863L164.196,8.863L164.196,26.951L166.406,26.951L166.406,20.249C167.735,21.536 169.302,22.154 170.787,22.146C173.758,22.13 176.438,19.666 176.451,15.322C176.44,11.489 174.145,8.501 170.856,8.501ZM170.675,20.114C169.321,20.133 167.769,19.298 166.406,17.887L166.406,12.633C167.741,11.235 169.407,10.589 170.686,10.589C172.865,10.589 174.155,12.52 174.155,15.322C174.155,18.551 172.618,20.091 170.675,20.114Z" style="fill:rgb(34,49,54);fill-rule:nonzero;"/>
                <path d="M91.741,8.367L90.27,8.367L90.27,21.782L94.598,21.782L94.598,11.668C94.594,10.029 93.931,8.422 91.741,8.367Z" style="fill:rgb(34,49,54);fill-rule:nonzero;"/>
                <path d="M158.664,18.278C157.327,19.47 155.699,20.08 154.273,20.08C152.704,20.08 151.798,19.09 151.798,17.286L151.798,8.863L149.588,8.863L149.588,17.286C149.588,20.637 151.599,22.144 154.053,22.144C155.554,22.144 157.284,21.47 158.664,20.149L158.664,21.782L160.874,21.782L160.874,8.863L158.664,8.863L158.664,18.278Z" style="fill:rgb(34,49,54);fill-rule:nonzero;"/>
                <path d="M128.582,9.857C128.414,10.026 128.269,10.216 128.15,10.422L128.15,8.863L125.939,8.863L125.939,21.782L128.15,21.782L128.15,12.289C128.269,12.083 128.414,11.893 128.582,11.724C130.002,10.292 133.258,10.577 133.336,10.652C133.439,9.651 133.363,8.818 133.336,8.782C133.254,8.713 130.002,8.427 128.582,9.857Z" style="fill:rgb(34,49,54);fill-rule:nonzero;"/>
                <path d="M140.837,8.501C136.961,8.475 134.401,11.524 134.401,15.322C134.401,19.119 136.958,22.144 140.837,22.144C144.739,22.144 147.274,19.087 147.274,15.322C147.274,11.556 144.739,8.501 140.837,8.501ZM140.837,20.056C138.314,20.056 136.713,18.088 136.713,15.322C136.687,12.556 138.264,10.586 140.837,10.589C143.41,10.593 144.963,12.533 144.963,15.322C144.963,18.11 143.388,20.056 140.837,20.056Z" style="fill:rgb(34,49,54);fill-rule:nonzero;"/>
                <path d="M92.429,1.625C91.049,1.625 89.929,2.702 89.929,4.029C89.929,5.357 91.049,6.436 92.429,6.436C93.81,6.436 94.936,5.357 94.936,4.023C94.936,2.689 93.81,1.625 92.429,1.625Z" style="fill:rgb(34,49,54);fill-rule:nonzero;"/>
                <path d="M120.547,8.863L120.547,10.486C119.2,9.124 117.641,8.501 116.11,8.501C112.823,8.501 110.503,11.379 110.503,15.109C110.503,18.839 112.797,21.723 116.107,21.742C117.716,21.734 119.205,21.098 120.547,19.748L120.547,21.378C120.535,23.953 119.456,25.345 117.123,25.345C115.546,25.345 113.555,24.701 111.845,23.356L111.693,25.168C113.431,26.626 115.394,27.311 117.267,27.311C120.344,27.311 122.772,25.477 122.769,21.399L122.758,8.863L120.547,8.863ZM120.547,17.776C119.279,19.092 117.631,19.764 116.275,19.771C114.073,19.771 112.812,17.951 112.812,15.158C112.812,12.364 114.099,10.589 116.268,10.585C117.687,10.585 119.353,11.326 120.547,12.567L120.547,17.776Z" style="fill:rgb(34,49,54);fill-rule:nonzero;"/>
                <path d="M103.436,13.565C101.712,13.159 101.328,12.981 101.408,12.491C101.505,11.836 102.213,11.582 103.027,11.582C104.245,11.582 105.685,11.928 106.607,12.651L108.153,10.11C106.75,8.932 104.596,8.501 102.843,8.501C99.979,8.501 97.15,9.613 97.152,12.813C97.152,15.438 99.025,16.049 102.267,16.849C103.762,17.222 104.404,17.349 104.385,17.975C104.366,18.601 103.769,19.036 102.345,19.036C100.921,19.036 99.22,18.579 98.344,17.587L96.792,20.106C98.039,21.491 100.447,22.156 102.584,22.156C105.297,22.156 108.617,21.103 108.651,17.822C108.68,14.746 105.785,14.107 103.436,13.565Z" style="fill:rgb(34,49,54);fill-rule:nonzero;"/>
            </g>
        </g>
    </g>
</svg>
