<?xml version="1.0" encoding="UTF-8" standalone="no"?>
<!DOCTYPE svg PUBLIC "-//W3C//DTD SVG 1.1//EN" "http://www.w3.org/Graphics/SVG/1.1/DTD/svg11.dtd">
<svg width="100%" height="100%" viewBox="0 0 851 704" version="1.1" xmlns="http://www.w3.org/2000/svg" xmlns:xlink="http://www.w3.org/1999/xlink" xml:space="preserve" xmlns:serif="http://www.serif.com/" style="fill-rule:evenodd;clip-rule:evenodd;stroke-linecap:round;stroke-linejoin:round;stroke-miterlimit:1.5;">
    <g transform="matrix(1,0,0,1,-74.6629,-148.305)">
        <g transform="matrix(2.26526,0,0,2.26526,-131.719,-705.936)">
            <g transform="matrix(1,0,0,1,-613.091,-382.545)">
                <path d="M891.963,862.004C891.963,909.143 853.692,947.414 806.552,947.414C759.412,947.414 721.141,909.143 721.141,862.004C721.141,814.864 759.412,776.593 806.552,776.593C819.994,776.593 832.715,779.705 844.033,785.247M891.963,862.004L806.552,862.004" style="fill:none;stroke:black;stroke-width:33.89px;"/>
            </g>
            <g transform="matrix(1,0,0,1,-442.269,-382.545)">
                <path d="M891.963,862.004C891.963,909.143 853.692,947.414 806.552,947.414C759.412,947.414 721.141,909.143 721.141,862.004C721.141,814.864 759.412,776.593 806.552,776.593C819.994,776.593 832.715,779.705 844.033,785.247M891.963,862.004L806.552,862.004" style="fill:none;stroke:black;stroke-width:33.89px;"/>
            </g>
            <path d="M170.06,631.4C170.06,631.4 204.021,670.673 278.872,670.673C353.723,670.673 387.685,631.4 387.685,631.4" style="fill:none;stroke:black;stroke-width:33.89px;"/>
        </g>
    </g>
</svg>
